<?xml version="1.0" encoding="UTF-8" standalone="no"?>
<svg xmlns:dc="http://purl.org/dc/elements/1.1/" xmlns:cc="http://creativecommons.org/ns#" xmlns:rdf="http://www.w3.org/1999/02/22-rdf-syntax-ns#" xmlns:svg="http://www.w3.org/2000/svg" xmlns="http://www.w3.org/2000/svg" xmlns:sodipodi="http://sodipodi.sourceforge.net/DTD/sodipodi-0.dtd" xmlns:inkscape="http://www.inkscape.org/namespaces/inkscape" version="1.0"
id="svg2"
sodipodi:docname="down.svg"
sodipodi:version="0.32" inkscape:version="0.46"
inkscape:output_extension="org.inkscape.output.svg.inkscape">
  
    <g id="dpad_group"
        transform="matrix(0, -1, 1, 0, 0, 600)"
    >
      <rect ry="16.883118" y="0" x="200" height="600" width="200" id="dpad_left_right_box" style="fill: rgb(0, 0, 0); fill-opacity: 1; stroke: rgb(249, 249, 249); stroke-width: 0pt; stroke-miterlimit: 4; stroke-dasharray: none; stroke-opacity: 1;"/>
      <rect transform="matrix(0, 1, -1, 0, 0, 0)" ry="16.883118" y="-600" x="200" height="600" width="200" id="dpad_up_down_box" style="fill: rgb(0, 0, 0); fill-opacity: 1; stroke: rgb(249, 249, 249); stroke-width: 0pt; stroke-miterlimit: 4; stroke-dasharray: none; stroke-opacity: 1;"/>
      <rect transform="matrix(0, 1, -1, 0, 0, 0)" ry="16.883118" y="-580" x="220" height="560" width="160" id="dpad_down_fill" style="fill: rgb(230, 230, 230); fill-opacity: 1; stroke: rgb(249, 249, 249); stroke-width: 0pt; stroke-miterlimit: 4; stroke-dasharray: none; stroke-opacity: 1;"/>
      <rect transform="matrix(0, 1, -1, 0, 0, 0)" ry="11.607143" y="-240" x="220" height="220" width="160" id="dpad_up_fill_red" style="fill: rgb(232, 70, 70); fill-opacity: 1; stroke: rgb(249, 249, 249); stroke-width: 0pt; stroke-miterlimit: 4; stroke-dasharray: none; stroke-opacity: 1;"/>
      <rect ry="16.883118" y="20" x="220" height="560" width="160" id="dpad_left_right_fill" style="fill: rgb(230, 230, 230); fill-opacity: 1; stroke: rgb(249, 249, 249); stroke-width: 0pt; stroke-miterlimit: 4; stroke-dasharray: none; stroke-opacity: 1;"/>
      <path transform="translate(180, 80)" d="M 180,220 A 60,60 0 1 1 60,220 A 60,60 0 1 1 180,220 z" sodipodi:ry="60" sodipodi:rx="60" sodipodi:cy="220" sodipodi:cx="120" id="dpad_center_circle" style="fill: rgb(179, 179, 179); fill-opacity: 1; stroke: rgb(128, 128, 128); stroke-width: 8; stroke-miterlimit: 4; stroke-dasharray: none; stroke-opacity: 1;" sodipodi:type="arc"/>
      <path sodipodi:nodetypes="cccc" id="dpad_right_triangle" d="M 299.94534,39.9366 L 359.89068,119.99999 L 240,120 L 299.94534,39.9366 z" style="fill: rgb(179, 179, 179); fill-opacity: 1; stroke: rgb(128, 128, 128); stroke-width: 8; stroke-miterlimit: 4; stroke-dasharray: none; stroke-opacity: 1;"/>
      <path sodipodi:nodetypes="cccc" id="dpad_left_triangle" d="M 300,560 L 359.94534,479.93661 L 240.05466,479.9366 L 300,560 z" style="fill: rgb(179, 179, 179); fill-opacity: 1; stroke: rgb(128, 128, 128); stroke-width: 8; stroke-miterlimit: 4; stroke-dasharray: none; stroke-opacity: 1;"/>
      <path sodipodi:nodetypes="cccc" id="dpad_down_triangle" d="M 560.0634,299.94534 L 480.00001,359.89068 L 480,240 L 560.0634,299.94534 z" style="fill: rgb(179, 179, 179); fill-opacity: 1; stroke: rgb(128, 128, 128); stroke-width: 8; stroke-miterlimit: 4; stroke-dasharray: none; stroke-opacity: 1;"/>
      <path sodipodi:nodetypes="cccc" id="dpad_up_triangle" d="M 39.93661,299.94534 L 120,240 L 120.00001,359.89068 L 39.93661,299.94534 z" style="fill: rgb(195, 51, 51); fill-opacity: 1; stroke: rgb(118, 47, 47); stroke-width: 8; stroke-miterlimit: 4; stroke-dasharray: none; stroke-opacity: 1;"/>
    </g>

</svg>
